solid patch0
  facet normal 0.951055 0.309021 0
    outer loop
       vertex 97.8148 20.7912 100
       vertex 91.3545 40.6737 0
       vertex 91.3545 40.6737 100
    endloop
  endfacet
  facet normal 0.951055 0.309021 0
    outer loop
       vertex 91.3545 40.6737 0
       vertex 97.8148 20.7912 100
       vertex 97.8148 20.7912 0
    endloop
  endfacet
  facet normal 0.994522 0.104527 0
    outer loop
       vertex 100 0 100
       vertex 97.8148 20.7912 0
       vertex 97.8148 20.7912 100
    endloop
  endfacet
  facet normal 0.994522 0.104527 0
    outer loop
       vertex 97.8148 20.7912 0
       vertex 100 0 100
       vertex 100 0 0
    endloop
  endfacet
  facet normal 0.866026 0.499999 0
    outer loop
       vertex 91.3545 40.6737 100
       vertex 80.9017 58.7785 0
       vertex 80.9017 58.7785 100
    endloop
  endfacet
  facet normal 0.866026 0.499999 0
    outer loop
       vertex 80.9017 58.7785 0
       vertex 91.3545 40.6737 100
       vertex 91.3545 40.6737 0
    endloop
  endfacet
  facet normal -0.40674 0.913544 0
    outer loop
       vertex -30.9017 95.1057 0
       vertex -50 86.6025 100
       vertex -30.9017 95.1057 100
    endloop
  endfacet
  facet normal -0.40674 0.913544 0
    outer loop
       vertex -50 86.6025 100
       vertex -30.9017 95.1057 0
       vertex -50 86.6025 0
    endloop
  endfacet
  facet normal 0.40674 0.913544 -0
    outer loop
       vertex 50 86.6025 0
       vertex 30.9017 95.1057 100
       vertex 50 86.6025 100
    endloop
  endfacet
  facet normal 0.40674 0.913544 0
    outer loop
       vertex 30.9017 95.1057 100
       vertex 50 86.6025 0
       vertex 30.9017 95.1057 0
    endloop
  endfacet
  facet normal 0.994522 -0.104527 0
    outer loop
       vertex 97.8148 -20.7912 100
       vertex 100 0 0
       vertex 100 0 100
    endloop
  endfacet
  facet normal 0.994522 -0.104527 0
    outer loop
       vertex 100 0 0
       vertex 97.8148 -20.7912 100
       vertex 97.8148 -20.7912 0
    endloop
  endfacet
  facet normal -0.743147 0.669129 0
    outer loop
       vertex -80.9017 58.7785 0
       vertex -66.9131 74.3145 100
       vertex -66.9131 74.3145 0
    endloop
  endfacet
  facet normal -0.743147 0.669129 0
    outer loop
       vertex -66.9131 74.3145 100
       vertex -80.9017 58.7785 0
       vertex -80.9017 58.7785 100
    endloop
  endfacet
  facet normal -0.587783 0.809019 0
    outer loop
       vertex -50 86.6025 0
       vertex -66.9131 74.3145 100
       vertex -50 86.6025 100
    endloop
  endfacet
  facet normal -0.587783 0.809019 0
    outer loop
       vertex -66.9131 74.3145 100
       vertex -50 86.6025 0
       vertex -66.9131 74.3145 0
    endloop
  endfacet
  facet normal 0.743147 0.669129 0
    outer loop
       vertex 80.9017 58.7785 100
       vertex 66.9131 74.3145 0
       vertex 66.9131 74.3145 100
    endloop
  endfacet
  facet normal 0.743147 0.669129 0
    outer loop
       vertex 66.9131 74.3145 0
       vertex 80.9017 58.7785 100
       vertex 80.9017 58.7785 0
    endloop
  endfacet
  facet normal 0 -1 0
    outer loop
       vertex -10.4528 -99.4522 0
       vertex 10.4528 -99.4522 100
       vertex -10.4528 -99.4522 100
    endloop
  endfacet
  facet normal 0 -1 -0
    outer loop
       vertex 10.4528 -99.4522 100
       vertex -10.4528 -99.4522 0
       vertex 10.4528 -99.4522 0
    endloop
  endfacet
  facet normal 0.951055 -0.309021 0
    outer loop
       vertex 91.3545 -40.6737 100
       vertex 97.8148 -20.7912 0
       vertex 97.8148 -20.7912 100
    endloop
  endfacet
  facet normal 0.951055 -0.309021 0
    outer loop
       vertex 97.8148 -20.7912 0
       vertex 91.3545 -40.6737 100
       vertex 91.3545 -40.6737 0
    endloop
  endfacet
  facet normal -0.40674 -0.913544 0
    outer loop
       vertex -50 -86.6025 0
       vertex -30.9017 -95.1057 100
       vertex -50 -86.6025 100
    endloop
  endfacet
  facet normal -0.40674 -0.913544 -0
    outer loop
       vertex -30.9017 -95.1057 100
       vertex -50 -86.6025 0
       vertex -30.9017 -95.1057 0
    endloop
  endfacet
  facet normal -0.866026 -0.499999 0
    outer loop
       vertex -80.9017 -58.7785 0
       vertex -91.3545 -40.6737 100
       vertex -91.3545 -40.6737 0
    endloop
  endfacet
  facet normal -0.866026 -0.499999 0
    outer loop
       vertex -91.3545 -40.6737 100
       vertex -80.9017 -58.7785 0
       vertex -80.9017 -58.7785 100
    endloop
  endfacet
  facet normal -0.951055 0.309021 0
    outer loop
       vertex -97.8148 20.7912 0
       vertex -91.3545 40.6737 100
       vertex -91.3545 40.6737 0
    endloop
  endfacet
  facet normal -0.951055 0.309021 0
    outer loop
       vertex -91.3545 40.6737 100
       vertex -97.8148 20.7912 0
       vertex -97.8148 20.7912 100
    endloop
  endfacet
  facet normal -0.20791 -0.978148 0
    outer loop
       vertex -30.9017 -95.1057 0
       vertex -10.4528 -99.4522 100
       vertex -30.9017 -95.1057 100
    endloop
  endfacet
  facet normal -0.20791 -0.978148 -0
    outer loop
       vertex -10.4528 -99.4522 100
       vertex -30.9017 -95.1057 0
       vertex -10.4528 -99.4522 0
    endloop
  endfacet
  facet normal -0.951055 -0.309021 0
    outer loop
       vertex -91.3545 -40.6737 0
       vertex -97.8148 -20.7912 100
       vertex -97.8148 -20.7912 0
    endloop
  endfacet
  facet normal -0.951055 -0.309021 0
    outer loop
       vertex -97.8148 -20.7912 100
       vertex -91.3545 -40.6737 0
       vertex -91.3545 -40.6737 100
    endloop
  endfacet
  facet normal -0.994522 0.104527 0
    outer loop
       vertex -100 0 0
       vertex -97.8148 20.7912 100
       vertex -97.8148 20.7912 0
    endloop
  endfacet
  facet normal -0.994522 0.104527 0
    outer loop
       vertex -97.8148 20.7912 100
       vertex -100 0 0
       vertex -100 0 100
    endloop
  endfacet
  facet normal 0 1 -0
    outer loop
       vertex 10.4528 99.4522 0
       vertex -10.4528 99.4522 100
       vertex 10.4528 99.4522 100
    endloop
  endfacet
  facet normal 0 1 0
    outer loop
       vertex -10.4528 99.4522 100
       vertex 10.4528 99.4522 0
       vertex -10.4528 99.4522 0
    endloop
  endfacet
  facet normal 0.743147 -0.669129 0
    outer loop
       vertex 66.9131 -74.3145 100
       vertex 80.9017 -58.7785 0
       vertex 80.9017 -58.7785 100
    endloop
  endfacet
  facet normal 0.743147 -0.669129 0
    outer loop
       vertex 80.9017 -58.7785 0
       vertex 66.9131 -74.3145 100
       vertex 66.9131 -74.3145 0
    endloop
  endfacet
  facet normal 0.20791 -0.978148 0
    outer loop
       vertex 10.4528 -99.4522 0
       vertex 30.9017 -95.1057 100
       vertex 10.4528 -99.4522 100
    endloop
  endfacet
  facet normal 0.20791 -0.978148 0
    outer loop
       vertex 30.9017 -95.1057 100
       vertex 10.4528 -99.4522 0
       vertex 30.9017 -95.1057 0
    endloop
  endfacet
  facet normal 0.866026 -0.499999 0
    outer loop
       vertex 80.9017 -58.7785 100
       vertex 91.3545 -40.6737 0
       vertex 91.3545 -40.6737 100
    endloop
  endfacet
  facet normal 0.866026 -0.499999 0
    outer loop
       vertex 91.3545 -40.6737 0
       vertex 80.9017 -58.7785 100
       vertex 80.9017 -58.7785 0
    endloop
  endfacet
  facet normal 0.20791 0.978148 -0
    outer loop
       vertex 30.9017 95.1057 0
       vertex 10.4528 99.4522 100
       vertex 30.9017 95.1057 100
    endloop
  endfacet
  facet normal 0.20791 0.978148 0
    outer loop
       vertex 10.4528 99.4522 100
       vertex 30.9017 95.1057 0
       vertex 10.4528 99.4522 0
    endloop
  endfacet
  facet normal 0.587783 -0.809019 0
    outer loop
       vertex 50 -86.6025 0
       vertex 66.9131 -74.3145 100
       vertex 50 -86.6025 100
    endloop
  endfacet
  facet normal 0.587783 -0.809019 0
    outer loop
       vertex 66.9131 -74.3145 100
       vertex 50 -86.6025 0
       vertex 66.9131 -74.3145 0
    endloop
  endfacet
  facet normal 0.587783 0.809019 -0
    outer loop
       vertex 66.9131 74.3145 0
       vertex 50 86.6025 100
       vertex 66.9131 74.3145 100
    endloop
  endfacet
  facet normal 0.587783 0.809019 0
    outer loop
       vertex 50 86.6025 100
       vertex 66.9131 74.3145 0
       vertex 50 86.6025 0
    endloop
  endfacet
  facet normal -0.20791 0.978148 0
    outer loop
       vertex -10.4528 99.4522 0
       vertex -30.9017 95.1057 100
       vertex -10.4528 99.4522 100
    endloop
  endfacet
  facet normal -0.20791 0.978148 0
    outer loop
       vertex -30.9017 95.1057 100
       vertex -10.4528 99.4522 0
       vertex -30.9017 95.1057 0
    endloop
  endfacet
  facet normal -0.994522 -0.104527 0
    outer loop
       vertex -97.8148 -20.7912 0
       vertex -100 0 100
       vertex -100 0 0
    endloop
  endfacet
  facet normal -0.994522 -0.104527 0
    outer loop
       vertex -100 0 100
       vertex -97.8148 -20.7912 0
       vertex -97.8148 -20.7912 100
    endloop
  endfacet
  facet normal 0.40674 -0.913544 0
    outer loop
       vertex 30.9017 -95.1057 0
       vertex 50 -86.6025 100
       vertex 30.9017 -95.1057 100
    endloop
  endfacet
  facet normal 0.40674 -0.913544 0
    outer loop
       vertex 50 -86.6025 100
       vertex 30.9017 -95.1057 0
       vertex 50 -86.6025 0
    endloop
  endfacet
  facet normal -0.743147 -0.669129 0
    outer loop
       vertex -66.9131 -74.3145 0
       vertex -80.9017 -58.7785 100
       vertex -80.9017 -58.7785 0
    endloop
  endfacet
  facet normal -0.743147 -0.669129 0
    outer loop
       vertex -80.9017 -58.7785 100
       vertex -66.9131 -74.3145 0
       vertex -66.9131 -74.3145 100
    endloop
  endfacet
  facet normal -0.587783 -0.809019 0
    outer loop
       vertex -66.9131 -74.3145 0
       vertex -50 -86.6025 100
       vertex -66.9131 -74.3145 100
    endloop
  endfacet
  facet normal -0.587783 -0.809019 -0
    outer loop
       vertex -50 -86.6025 100
       vertex -66.9131 -74.3145 0
       vertex -50 -86.6025 0
    endloop
  endfacet
  facet normal -0.866026 0.499999 0
    outer loop
       vertex -91.3545 40.6737 0
       vertex -80.9017 58.7785 100
       vertex -80.9017 58.7785 0
    endloop
  endfacet
  facet normal -0.866026 0.499999 0
    outer loop
       vertex -80.9017 58.7785 100
       vertex -91.3545 40.6737 0
       vertex -91.3545 40.6737 100
    endloop
  endfacet
endsolid patch0
