solid OpenSCAD_Model
  facet normal 0.951055 0.309021 0
    outer loop
      vertex 97.8148 20.7912 100
      vertex 91.3545 40.6737 0
      vertex 91.3545 40.6737 100
    endloop
  endfacet
  facet normal 0.951055 0.309021 0
    outer loop
      vertex 91.3545 40.6737 0
      vertex 97.8148 20.7912 100
      vertex 97.8148 20.7912 0
    endloop
  endfacet
  facet normal 0.994522 0.104526 0
    outer loop
      vertex 100 0 100
      vertex 97.8148 20.7912 0
      vertex 97.8148 20.7912 100
    endloop
  endfacet
  facet normal 0.994522 0.104526 0
    outer loop
      vertex 97.8148 20.7912 0
      vertex 100 0 100
      vertex 100 0 0
    endloop
  endfacet
  facet normal 0.866026 0.5 0
    outer loop
      vertex 91.3545 40.6737 100
      vertex 80.9017 58.7785 0
      vertex 80.9017 58.7785 100
    endloop
  endfacet
  facet normal 0.866026 0.5 0
    outer loop
      vertex 80.9017 58.7785 0
      vertex 91.3545 40.6737 100
      vertex 91.3545 40.6737 0
    endloop
  endfacet
  facet normal -0.40674 0.913544 0
    outer loop
      vertex -30.9017 95.1057 0
      vertex -50 86.6025 100
      vertex -30.9017 95.1057 100
    endloop
  endfacet
  facet normal -0.40674 0.913544 0
    outer loop
      vertex -50 86.6025 100
      vertex -30.9017 95.1057 0
      vertex -50 86.6025 0
    endloop
  endfacet
  facet normal 0.40674 0.913544 -0
    outer loop
      vertex 50 86.6025 0
      vertex 30.9017 95.1057 100
      vertex 50 86.6025 100
    endloop
  endfacet
  facet normal 0.40674 0.913544 0
    outer loop
      vertex 30.9017 95.1057 100
      vertex 50 86.6025 0
      vertex 30.9017 95.1057 0
    endloop
  endfacet
  facet normal 0.994522 -0.104526 0
    outer loop
      vertex 97.8148 -20.7912 100
      vertex 100 0 0
      vertex 100 0 100
    endloop
  endfacet
  facet normal 0.994522 -0.104526 0
    outer loop
      vertex 100 0 0
      vertex 97.8148 -20.7912 100
      vertex 97.8148 -20.7912 0
    endloop
  endfacet
  facet normal -0.743147 0.669129 0
    outer loop
      vertex -80.9017 58.7785 0
      vertex -66.9131 74.3145 100
      vertex -66.9131 74.3145 0
    endloop
  endfacet
  facet normal -0.743147 0.669129 0
    outer loop
      vertex -66.9131 74.3145 100
      vertex -80.9017 58.7785 0
      vertex -80.9017 58.7785 100
    endloop
  endfacet
  facet normal -0.587783 0.809019 0
    outer loop
      vertex -50 86.6025 0
      vertex -66.9131 74.3145 100
      vertex -50 86.6025 100
    endloop
  endfacet
  facet normal -0.587783 0.809019 0
    outer loop
      vertex -66.9131 74.3145 100
      vertex -50 86.6025 0
      vertex -66.9131 74.3145 0
    endloop
  endfacet
  facet normal 0.743147 0.669129 0
    outer loop
      vertex 80.9017 58.7785 100
      vertex 66.9131 74.3145 0
      vertex 66.9131 74.3145 100
    endloop
  endfacet
  facet normal 0.743147 0.669129 0
    outer loop
      vertex 66.9131 74.3145 0
      vertex 80.9017 58.7785 100
      vertex 80.9017 58.7785 0
    endloop
  endfacet
  facet normal 0 -1 0
    outer loop
      vertex -10.4528 -99.4522 0
      vertex 10.4528 -99.4522 100
      vertex -10.4528 -99.4522 100
    endloop
  endfacet
  facet normal 0 -1 -0
    outer loop
      vertex 10.4528 -99.4522 100
      vertex -10.4528 -99.4522 0
      vertex 10.4528 -99.4522 0
    endloop
  endfacet
  facet normal 0.951055 -0.309021 0
    outer loop
      vertex 91.3545 -40.6737 100
      vertex 97.8148 -20.7912 0
      vertex 97.8148 -20.7912 100
    endloop
  endfacet
  facet normal 0.951055 -0.309021 0
    outer loop
      vertex 97.8148 -20.7912 0
      vertex 91.3545 -40.6737 100
      vertex 91.3545 -40.6737 0
    endloop
  endfacet
  facet normal -0.40674 -0.913544 0
    outer loop
      vertex -50 -86.6025 0
      vertex -30.9017 -95.1057 100
      vertex -50 -86.6025 100
    endloop
  endfacet
  facet normal -0.40674 -0.913544 -0
    outer loop
      vertex -30.9017 -95.1057 100
      vertex -50 -86.6025 0
      vertex -30.9017 -95.1057 0
    endloop
  endfacet
  facet normal -0.866026 -0.5 0
    outer loop
      vertex -80.9017 -58.7785 0
      vertex -91.3545 -40.6737 100
      vertex -91.3545 -40.6737 0
    endloop
  endfacet
  facet normal -0.866026 -0.5 0
    outer loop
      vertex -91.3545 -40.6737 100
      vertex -80.9017 -58.7785 0
      vertex -80.9017 -58.7785 100
    endloop
  endfacet
  facet normal -0.951055 0.309021 0
    outer loop
      vertex -97.8148 20.7912 0
      vertex -91.3545 40.6737 100
      vertex -91.3545 40.6737 0
    endloop
  endfacet
  facet normal -0.951055 0.309021 0
    outer loop
      vertex -91.3545 40.6737 100
      vertex -97.8148 20.7912 0
      vertex -97.8148 20.7912 100
    endloop
  endfacet
  facet normal -0.207909 -0.978148 0
    outer loop
      vertex -30.9017 -95.1057 0
      vertex -10.4528 -99.4522 100
      vertex -30.9017 -95.1057 100
    endloop
  endfacet
  facet normal -0.207909 -0.978148 -0
    outer loop
      vertex -10.4528 -99.4522 100
      vertex -30.9017 -95.1057 0
      vertex -10.4528 -99.4522 0
    endloop
  endfacet
  facet normal -0.951055 -0.309021 0
    outer loop
      vertex -91.3545 -40.6737 0
      vertex -97.8148 -20.7912 100
      vertex -97.8148 -20.7912 0
    endloop
  endfacet
  facet normal -0.951055 -0.309021 0
    outer loop
      vertex -97.8148 -20.7912 100
      vertex -91.3545 -40.6737 0
      vertex -91.3545 -40.6737 100
    endloop
  endfacet
  facet normal -0.994522 0.104526 0
    outer loop
      vertex -100 0 0
      vertex -97.8148 20.7912 100
      vertex -97.8148 20.7912 0
    endloop
  endfacet
  facet normal -0.994522 0.104526 0
    outer loop
      vertex -97.8148 20.7912 100
      vertex -100 0 0
      vertex -100 0 100
    endloop
  endfacet
  facet normal 0 1 -0
    outer loop
      vertex 10.4528 99.4522 0
      vertex -10.4528 99.4522 100
      vertex 10.4528 99.4522 100
    endloop
  endfacet
  facet normal 0 1 0
    outer loop
      vertex -10.4528 99.4522 100
      vertex 10.4528 99.4522 0
      vertex -10.4528 99.4522 0
    endloop
  endfacet
  facet normal 0.743147 -0.669129 0
    outer loop
      vertex 66.9131 -74.3145 100
      vertex 80.9017 -58.7785 0
      vertex 80.9017 -58.7785 100
    endloop
  endfacet
  facet normal 0.743147 -0.669129 0
    outer loop
      vertex 80.9017 -58.7785 0
      vertex 66.9131 -74.3145 100
      vertex 66.9131 -74.3145 0
    endloop
  endfacet
  facet normal 0.207909 -0.978148 0
    outer loop
      vertex 10.4528 -99.4522 0
      vertex 30.9017 -95.1057 100
      vertex 10.4528 -99.4522 100
    endloop
  endfacet
  facet normal 0.207909 -0.978148 0
    outer loop
      vertex 30.9017 -95.1057 100
      vertex 10.4528 -99.4522 0
      vertex 30.9017 -95.1057 0
    endloop
  endfacet
  facet normal 0.866026 -0.5 0
    outer loop
      vertex 80.9017 -58.7785 100
      vertex 91.3545 -40.6737 0
      vertex 91.3545 -40.6737 100
    endloop
  endfacet
  facet normal 0.866026 -0.5 0
    outer loop
      vertex 91.3545 -40.6737 0
      vertex 80.9017 -58.7785 100
      vertex 80.9017 -58.7785 0
    endloop
  endfacet
  facet normal 0.207909 0.978148 -0
    outer loop
      vertex 30.9017 95.1057 0
      vertex 10.4528 99.4522 100
      vertex 30.9017 95.1057 100
    endloop
  endfacet
  facet normal 0.207909 0.978148 0
    outer loop
      vertex 10.4528 99.4522 100
      vertex 30.9017 95.1057 0
      vertex 10.4528 99.4522 0
    endloop
  endfacet
  facet normal 0.587783 -0.809019 0
    outer loop
      vertex 50 -86.6025 0
      vertex 66.9131 -74.3145 100
      vertex 50 -86.6025 100
    endloop
  endfacet
  facet normal 0.587783 -0.809019 0
    outer loop
      vertex 66.9131 -74.3145 100
      vertex 50 -86.6025 0
      vertex 66.9131 -74.3145 0
    endloop
  endfacet
  facet normal 0.587783 0.809019 -0
    outer loop
      vertex 66.9131 74.3145 0
      vertex 50 86.6025 100
      vertex 66.9131 74.3145 100
    endloop
  endfacet
  facet normal 0.587783 0.809019 0
    outer loop
      vertex 50 86.6025 100
      vertex 66.9131 74.3145 0
      vertex 50 86.6025 0
    endloop
  endfacet
  facet normal -0.207909 0.978148 0
    outer loop
      vertex -10.4528 99.4522 0
      vertex -30.9017 95.1057 100
      vertex -10.4528 99.4522 100
    endloop
  endfacet
  facet normal -0.207909 0.978148 0
    outer loop
      vertex -30.9017 95.1057 100
      vertex -10.4528 99.4522 0
      vertex -30.9017 95.1057 0
    endloop
  endfacet
  facet normal -0.994522 -0.104526 0
    outer loop
      vertex -97.8148 -20.7912 0
      vertex -100 0 100
      vertex -100 0 0
    endloop
  endfacet
  facet normal -0.994522 -0.104526 0
    outer loop
      vertex -100 0 100
      vertex -97.8148 -20.7912 0
      vertex -97.8148 -20.7912 100
    endloop
  endfacet
  facet normal 0 0 -1
    outer loop
      vertex 10 0 0
      vertex 100 0 0
      vertex 97.8148 -20.7912 0
    endloop
  endfacet
  facet normal 0 0 -1
    outer loop
      vertex 9.78148 -2.07912 0
      vertex 97.8148 -20.7912 0
      vertex 91.3545 -40.6737 0
    endloop
  endfacet
  facet normal 0 0 -1
    outer loop
      vertex 100 0 0
      vertex 10 0 0
      vertex 97.8148 20.7912 0
    endloop
  endfacet
  facet normal 0 0 -1
    outer loop
      vertex 9.13545 -4.06737 0
      vertex 91.3545 -40.6737 0
      vertex 80.9017 -58.7785 0
    endloop
  endfacet
  facet normal 0 0 -1
    outer loop
      vertex 9.78148 2.07912 0
      vertex 97.8148 20.7912 0
      vertex 10 0 0
    endloop
  endfacet
  facet normal 0 0 -1
    outer loop
      vertex 8.09017 -5.87785 0
      vertex 80.9017 -58.7785 0
      vertex 66.9131 -74.3145 0
    endloop
  endfacet
  facet normal -0 0 -1
    outer loop
      vertex 97.8148 20.7912 0
      vertex 9.78148 2.07912 0
      vertex 91.3545 40.6737 0
    endloop
  endfacet
  facet normal 0 0 -1
    outer loop
      vertex 6.69131 -7.43145 0
      vertex 66.9131 -74.3145 0
      vertex 50 -86.6025 0
    endloop
  endfacet
  facet normal 0 0 -1
    outer loop
      vertex 9.13545 4.06737 0
      vertex 91.3545 40.6737 0
      vertex 9.78148 2.07912 0
    endloop
  endfacet
  facet normal 0 0 -1
    outer loop
      vertex 5 -8.66025 0
      vertex 50 -86.6025 0
      vertex 30.9017 -95.1057 0
    endloop
  endfacet
  facet normal -0 0 -1
    outer loop
      vertex 91.3545 40.6737 0
      vertex 9.13545 4.06737 0
      vertex 80.9017 58.7785 0
    endloop
  endfacet
  facet normal 0 0 -1
    outer loop
      vertex 3.09017 -9.51056 0
      vertex 30.9017 -95.1057 0
      vertex 10.4528 -99.4522 0
    endloop
  endfacet
  facet normal 0 0 -1
    outer loop
      vertex 8.09017 5.87785 0
      vertex 80.9017 58.7785 0
      vertex 9.13545 4.06737 0
    endloop
  endfacet
  facet normal -0 0 -1
    outer loop
      vertex 80.9017 58.7785 0
      vertex 8.09017 5.87785 0
      vertex 66.9131 74.3145 0
    endloop
  endfacet
  facet normal 0 0 -1
    outer loop
      vertex 97.8148 -20.7912 0
      vertex 9.78148 -2.07912 0
      vertex 10 0 0
    endloop
  endfacet
  facet normal 0 0 -1
    outer loop
      vertex 91.3545 -40.6737 0
      vertex 9.13545 -4.06737 0
      vertex 9.78148 -2.07912 0
    endloop
  endfacet
  facet normal 0 0 -1
    outer loop
      vertex 80.9017 -58.7785 0
      vertex 8.09017 -5.87785 0
      vertex 9.13545 -4.06737 0
    endloop
  endfacet
  facet normal 0 0 -1
    outer loop
      vertex 66.9131 -74.3145 0
      vertex 6.69131 -7.43145 0
      vertex 8.09017 -5.87785 0
    endloop
  endfacet
  facet normal 0 0 -1
    outer loop
      vertex 50 -86.6025 0
      vertex 5 -8.66025 0
      vertex 6.69131 -7.43145 0
    endloop
  endfacet
  facet normal 0 0 -1
    outer loop
      vertex 30.9017 -95.1057 0
      vertex 3.09017 -9.51056 0
      vertex 5 -8.66025 0
    endloop
  endfacet
  facet normal 0 0 -1
    outer loop
      vertex 10.4528 -99.4522 0
      vertex 1.04528 -9.94522 0
      vertex 3.09017 -9.51056 0
    endloop
  endfacet
  facet normal 0 0 -1
    outer loop
      vertex 10.4528 -99.4522 0
      vertex -1.04528 -9.94522 0
      vertex 1.04528 -9.94522 0
    endloop
  endfacet
  facet normal 0 0 -1
    outer loop
      vertex -10.4528 -99.4522 0
      vertex -1.04528 -9.94522 0
      vertex 10.4528 -99.4522 0
    endloop
  endfacet
  facet normal -0 0 -1
    outer loop
      vertex -1.04528 -9.94522 0
      vertex -10.4528 -99.4522 0
      vertex -3.09017 -9.51056 0
    endloop
  endfacet
  facet normal 0 0 -1
    outer loop
      vertex -30.9017 -95.1057 0
      vertex -3.09017 -9.51056 0
      vertex -10.4528 -99.4522 0
    endloop
  endfacet
  facet normal -0 0 -1
    outer loop
      vertex -3.09017 -9.51056 0
      vertex -30.9017 -95.1057 0
      vertex -5 -8.66025 0
    endloop
  endfacet
  facet normal 0 0 -1
    outer loop
      vertex -50 -86.6025 0
      vertex -5 -8.66025 0
      vertex -30.9017 -95.1057 0
    endloop
  endfacet
  facet normal -0 0 -1
    outer loop
      vertex -5 -8.66025 0
      vertex -50 -86.6025 0
      vertex -6.69131 -7.43145 0
    endloop
  endfacet
  facet normal -0 0 -1
    outer loop
      vertex -6.69131 -7.43145 0
      vertex -66.9131 -74.3145 0
      vertex -8.09017 -5.87785 0
    endloop
  endfacet
  facet normal 0 0 -1
    outer loop
      vertex -66.9131 -74.3145 0
      vertex -6.69131 -7.43145 0
      vertex -50 -86.6025 0
    endloop
  endfacet
  facet normal 0 0 -1
    outer loop
      vertex 6.69131 7.43145 0
      vertex 66.9131 74.3145 0
      vertex 8.09017 5.87785 0
    endloop
  endfacet
  facet normal -0 0 -1
    outer loop
      vertex 66.9131 74.3145 0
      vertex 6.69131 7.43145 0
      vertex 50 86.6025 0
    endloop
  endfacet
  facet normal 0 0 -1
    outer loop
      vertex 5 8.66025 0
      vertex 50 86.6025 0
      vertex 6.69131 7.43145 0
    endloop
  endfacet
  facet normal -0 0 -1
    outer loop
      vertex 50 86.6025 0
      vertex 5 8.66025 0
      vertex 30.9017 95.1057 0
    endloop
  endfacet
  facet normal 0 0 -1
    outer loop
      vertex 3.09017 9.51056 0
      vertex 30.9017 95.1057 0
      vertex 5 8.66025 0
    endloop
  endfacet
  facet normal -0 0 -1
    outer loop
      vertex 30.9017 95.1057 0
      vertex 3.09017 9.51056 0
      vertex 10.4528 99.4522 0
    endloop
  endfacet
  facet normal 0 0 -1
    outer loop
      vertex 1.04528 9.94522 0
      vertex 10.4528 99.4522 0
      vertex 3.09017 9.51056 0
    endloop
  endfacet
  facet normal 0 0 -1
    outer loop
      vertex -1.04528 9.94522 0
      vertex 10.4528 99.4522 0
      vertex 1.04528 9.94522 0
    endloop
  endfacet
  facet normal 0 0 -1
    outer loop
      vertex -10.4528 99.4522 0
      vertex -1.04528 9.94522 0
      vertex -3.09017 9.51056 0
    endloop
  endfacet
  facet normal 0 0 -1
    outer loop
      vertex -30.9017 95.1057 0
      vertex -3.09017 9.51056 0
      vertex -5 8.66025 0
    endloop
  endfacet
  facet normal 0 0 -1
    outer loop
      vertex -50 86.6025 0
      vertex -5 8.66025 0
      vertex -6.69131 7.43145 0
    endloop
  endfacet
  facet normal 0 0 -1
    outer loop
      vertex -66.9131 74.3145 0
      vertex -6.69131 7.43145 0
      vertex -8.09017 5.87785 0
    endloop
  endfacet
  facet normal 0 0 -1
    outer loop
      vertex -80.9017 58.7785 0
      vertex -8.09017 5.87785 0
      vertex -9.13545 4.06737 0
    endloop
  endfacet
  facet normal 0 0 -1
    outer loop
      vertex -91.3545 40.6737 0
      vertex -9.13545 4.06737 0
      vertex -9.78148 2.07912 0
    endloop
  endfacet
  facet normal 0 0 -1
    outer loop
      vertex -1.04528 9.94522 0
      vertex -10.4528 99.4522 0
      vertex 10.4528 99.4522 0
    endloop
  endfacet
  facet normal 0 0 -1
    outer loop
      vertex -97.8148 20.7912 0
      vertex -9.78148 2.07912 0
      vertex -10 0 0
    endloop
  endfacet
  facet normal 0 0 -1
    outer loop
      vertex -80.9017 -58.7785 0
      vertex -8.09017 -5.87785 0
      vertex -66.9131 -74.3145 0
    endloop
  endfacet
  facet normal -0 0 -1
    outer loop
      vertex -8.09017 -5.87785 0
      vertex -80.9017 -58.7785 0
      vertex -9.13545 -4.06737 0
    endloop
  endfacet
  facet normal 0 0 -1
    outer loop
      vertex -3.09017 9.51056 0
      vertex -30.9017 95.1057 0
      vertex -10.4528 99.4522 0
    endloop
  endfacet
  facet normal 0 0 -1
    outer loop
      vertex -91.3545 -40.6737 0
      vertex -9.13545 -4.06737 0
      vertex -80.9017 -58.7785 0
    endloop
  endfacet
  facet normal 0 0 -1
    outer loop
      vertex -5 8.66025 0
      vertex -50 86.6025 0
      vertex -30.9017 95.1057 0
    endloop
  endfacet
  facet normal -0 0 -1
    outer loop
      vertex -9.13545 -4.06737 0
      vertex -91.3545 -40.6737 0
      vertex -9.78148 -2.07912 0
    endloop
  endfacet
  facet normal 0 0 -1
    outer loop
      vertex -6.69131 7.43145 0
      vertex -66.9131 74.3145 0
      vertex -50 86.6025 0
    endloop
  endfacet
  facet normal 0 0 -1
    outer loop
      vertex -97.8148 -20.7912 0
      vertex -9.78148 -2.07912 0
      vertex -91.3545 -40.6737 0
    endloop
  endfacet
  facet normal 0 0 -1
    outer loop
      vertex -8.09017 5.87785 0
      vertex -80.9017 58.7785 0
      vertex -66.9131 74.3145 0
    endloop
  endfacet
  facet normal -0 0 -1
    outer loop
      vertex -9.78148 -2.07912 0
      vertex -97.8148 -20.7912 0
      vertex -10 0 0
    endloop
  endfacet
  facet normal 0 0 -1
    outer loop
      vertex -9.13545 4.06737 0
      vertex -91.3545 40.6737 0
      vertex -80.9017 58.7785 0
    endloop
  endfacet
  facet normal 0 0 -1
    outer loop
      vertex -100 0 0
      vertex -10 0 0
      vertex -97.8148 -20.7912 0
    endloop
  endfacet
  facet normal 0 0 -1
    outer loop
      vertex -9.78148 2.07912 0
      vertex -97.8148 20.7912 0
      vertex -91.3545 40.6737 0
    endloop
  endfacet
  facet normal 0 0 -1
    outer loop
      vertex -10 0 0
      vertex -100 0 0
      vertex -97.8148 20.7912 0
    endloop
  endfacet
  facet normal 0 0 1
    outer loop
      vertex 97.8148 20.7912 100
      vertex 97.8148 -20.7912 100
      vertex 100 0 100
    endloop
  endfacet
  facet normal 0 0 1
    outer loop
      vertex 91.3545 40.6737 100
      vertex 97.8148 -20.7912 100
      vertex 97.8148 20.7912 100
    endloop
  endfacet
  facet normal 0 0 1
    outer loop
      vertex 91.3545 40.6737 100
      vertex 91.3545 -40.6737 100
      vertex 97.8148 -20.7912 100
    endloop
  endfacet
  facet normal 0 0 1
    outer loop
      vertex 80.9017 58.7785 100
      vertex 91.3545 -40.6737 100
      vertex 91.3545 40.6737 100
    endloop
  endfacet
  facet normal 0 0 1
    outer loop
      vertex 80.9017 58.7785 100
      vertex 80.9017 -58.7785 100
      vertex 91.3545 -40.6737 100
    endloop
  endfacet
  facet normal 0 0 1
    outer loop
      vertex 66.9131 74.3145 100
      vertex 80.9017 -58.7785 100
      vertex 80.9017 58.7785 100
    endloop
  endfacet
  facet normal 0 0 1
    outer loop
      vertex 66.9131 74.3145 100
      vertex 66.9131 -74.3145 100
      vertex 80.9017 -58.7785 100
    endloop
  endfacet
  facet normal 0 0 1
    outer loop
      vertex 50 86.6025 100
      vertex 66.9131 -74.3145 100
      vertex 66.9131 74.3145 100
    endloop
  endfacet
  facet normal 0 0 1
    outer loop
      vertex 50 86.6025 100
      vertex 50 -86.6025 100
      vertex 66.9131 -74.3145 100
    endloop
  endfacet
  facet normal 0 0 1
    outer loop
      vertex 30.9017 95.1057 100
      vertex 50 -86.6025 100
      vertex 50 86.6025 100
    endloop
  endfacet
  facet normal 0 0 1
    outer loop
      vertex 30.9017 95.1057 100
      vertex 30.9017 -95.1057 100
      vertex 50 -86.6025 100
    endloop
  endfacet
  facet normal 0 0 1
    outer loop
      vertex 10.4528 99.4522 100
      vertex 30.9017 -95.1057 100
      vertex 30.9017 95.1057 100
    endloop
  endfacet
  facet normal 0 0 1
    outer loop
      vertex 10.4528 99.4522 100
      vertex 10.4528 -99.4522 100
      vertex 30.9017 -95.1057 100
    endloop
  endfacet
  facet normal -0 0 1
    outer loop
      vertex -10.4528 99.4522 100
      vertex 10.4528 -99.4522 100
      vertex 10.4528 99.4522 100
    endloop
  endfacet
  facet normal 0 0 1
    outer loop
      vertex -10.4528 99.4522 100
      vertex -10.4528 -99.4522 100
      vertex 10.4528 -99.4522 100
    endloop
  endfacet
  facet normal -0 0 1
    outer loop
      vertex -30.9017 95.1057 100
      vertex -10.4528 -99.4522 100
      vertex -10.4528 99.4522 100
    endloop
  endfacet
  facet normal 0 0 1
    outer loop
      vertex -30.9017 95.1057 100
      vertex -30.9017 -95.1057 100
      vertex -10.4528 -99.4522 100
    endloop
  endfacet
  facet normal -0 0 1
    outer loop
      vertex -50 86.6025 100
      vertex -30.9017 -95.1057 100
      vertex -30.9017 95.1057 100
    endloop
  endfacet
  facet normal 0 0 1
    outer loop
      vertex -50 86.6025 100
      vertex -50 -86.6025 100
      vertex -30.9017 -95.1057 100
    endloop
  endfacet
  facet normal -0 0 1
    outer loop
      vertex -66.9131 74.3145 100
      vertex -50 -86.6025 100
      vertex -50 86.6025 100
    endloop
  endfacet
  facet normal 0 0 1
    outer loop
      vertex -66.9131 74.3145 100
      vertex -66.9131 -74.3145 100
      vertex -50 -86.6025 100
    endloop
  endfacet
  facet normal -0 0 1
    outer loop
      vertex -80.9017 58.7785 100
      vertex -66.9131 -74.3145 100
      vertex -66.9131 74.3145 100
    endloop
  endfacet
  facet normal 0 0 1
    outer loop
      vertex -80.9017 58.7785 100
      vertex -80.9017 -58.7785 100
      vertex -66.9131 -74.3145 100
    endloop
  endfacet
  facet normal -0 0 1
    outer loop
      vertex -91.3545 40.6737 100
      vertex -80.9017 -58.7785 100
      vertex -80.9017 58.7785 100
    endloop
  endfacet
  facet normal 0 0 1
    outer loop
      vertex -91.3545 40.6737 100
      vertex -91.3545 -40.6737 100
      vertex -80.9017 -58.7785 100
    endloop
  endfacet
  facet normal -0 0 1
    outer loop
      vertex -97.8148 20.7912 100
      vertex -91.3545 -40.6737 100
      vertex -91.3545 40.6737 100
    endloop
  endfacet
  facet normal 0 0 1
    outer loop
      vertex -97.8148 20.7912 100
      vertex -97.8148 -20.7912 100
      vertex -91.3545 -40.6737 100
    endloop
  endfacet
  facet normal 0 -0 1
    outer loop
      vertex -97.8148 -20.7912 100
      vertex -97.8148 20.7912 100
      vertex -100 0 100
    endloop
  endfacet
  facet normal 0.40674 -0.913544 0
    outer loop
      vertex 30.9017 -95.1057 0
      vertex 50 -86.6025 100
      vertex 30.9017 -95.1057 100
    endloop
  endfacet
  facet normal 0.40674 -0.913544 0
    outer loop
      vertex 50 -86.6025 100
      vertex 30.9017 -95.1057 0
      vertex 50 -86.6025 0
    endloop
  endfacet
  facet normal -0.743147 -0.669129 0
    outer loop
      vertex -66.9131 -74.3145 0
      vertex -80.9017 -58.7785 100
      vertex -80.9017 -58.7785 0
    endloop
  endfacet
  facet normal -0.743147 -0.669129 0
    outer loop
      vertex -80.9017 -58.7785 100
      vertex -66.9131 -74.3145 0
      vertex -66.9131 -74.3145 100
    endloop
  endfacet
  facet normal -0.587783 -0.809019 0
    outer loop
      vertex -66.9131 -74.3145 0
      vertex -50 -86.6025 100
      vertex -66.9131 -74.3145 100
    endloop
  endfacet
  facet normal -0.587783 -0.809019 -0
    outer loop
      vertex -50 -86.6025 100
      vertex -66.9131 -74.3145 0
      vertex -50 -86.6025 0
    endloop
  endfacet
  facet normal -0.866026 0.5 0
    outer loop
      vertex -91.3545 40.6737 0
      vertex -80.9017 58.7785 100
      vertex -80.9017 58.7785 0
    endloop
  endfacet
  facet normal -0.866026 0.5 0
    outer loop
      vertex -80.9017 58.7785 100
      vertex -91.3545 40.6737 0
      vertex -91.3545 40.6737 100
    endloop
  endfacet
  facet normal -0.743147 -0.669129 0
    outer loop
      vertex -6.69131 -7.43145 -5
      vertex -8.09017 -5.87785 0
      vertex -8.09017 -5.87785 -5
    endloop
  endfacet
  facet normal -0.743147 -0.669129 0
    outer loop
      vertex -8.09017 -5.87785 0
      vertex -6.69131 -7.43145 -5
      vertex -6.69131 -7.43145 0
    endloop
  endfacet
  facet normal 0.951055 0.309021 0
    outer loop
      vertex 9.78148 2.07912 0
      vertex 9.13545 4.06737 -5
      vertex 9.13545 4.06737 0
    endloop
  endfacet
  facet normal 0.951055 0.309021 0
    outer loop
      vertex 9.13545 4.06737 -5
      vertex 9.78148 2.07912 0
      vertex 9.78148 2.07912 -5
    endloop
  endfacet
  facet normal 0.994522 0.104526 0
    outer loop
      vertex 10 0 0
      vertex 9.78148 2.07912 -5
      vertex 9.78148 2.07912 0
    endloop
  endfacet
  facet normal 0.994522 0.104526 0
    outer loop
      vertex 9.78148 2.07912 -5
      vertex 10 0 0
      vertex 10 0 -5
    endloop
  endfacet
  facet normal 0.866026 0.5 0
    outer loop
      vertex 9.13545 4.06737 0
      vertex 8.09017 5.87785 -5
      vertex 8.09017 5.87785 0
    endloop
  endfacet
  facet normal 0.866026 0.5 0
    outer loop
      vertex 8.09017 5.87785 -5
      vertex 9.13545 4.06737 0
      vertex 9.13545 4.06737 -5
    endloop
  endfacet
  facet normal 0.951055 -0.309021 0
    outer loop
      vertex 9.13545 -4.06737 0
      vertex 9.78148 -2.07912 -5
      vertex 9.78148 -2.07912 0
    endloop
  endfacet
  facet normal 0.951055 -0.309021 0
    outer loop
      vertex 9.78148 -2.07912 -5
      vertex 9.13545 -4.06737 0
      vertex 9.13545 -4.06737 -5
    endloop
  endfacet
  facet normal 0.587783 -0.809019 0
    outer loop
      vertex 5 -8.66025 -5
      vertex 6.69131 -7.43145 0
      vertex 5 -8.66025 0
    endloop
  endfacet
  facet normal 0.587783 -0.809019 0
    outer loop
      vertex 6.69131 -7.43145 0
      vertex 5 -8.66025 -5
      vertex 6.69131 -7.43145 -5
    endloop
  endfacet
  facet normal 0.743147 -0.669129 0
    outer loop
      vertex 6.69131 -7.43145 0
      vertex 8.09017 -5.87785 -5
      vertex 8.09017 -5.87785 0
    endloop
  endfacet
  facet normal 0.743147 -0.669129 0
    outer loop
      vertex 8.09017 -5.87785 -5
      vertex 6.69131 -7.43145 0
      vertex 6.69131 -7.43145 -5
    endloop
  endfacet
  facet normal 0.994522 -0.104526 0
    outer loop
      vertex 9.78148 -2.07912 0
      vertex 10 0 -5
      vertex 10 0 0
    endloop
  endfacet
  facet normal 0.994522 -0.104526 0
    outer loop
      vertex 10 0 -5
      vertex 9.78148 -2.07912 0
      vertex 9.78148 -2.07912 -5
    endloop
  endfacet
  facet normal -0.406736 -0.913546 0
    outer loop
      vertex -5 -8.66025 -5
      vertex -3.09017 -9.51056 0
      vertex -5 -8.66025 0
    endloop
  endfacet
  facet normal -0.406736 -0.913546 -0
    outer loop
      vertex -3.09017 -9.51056 0
      vertex -5 -8.66025 -5
      vertex -3.09017 -9.51056 -5
    endloop
  endfacet
  facet normal 0.406736 0.913546 -0
    outer loop
      vertex 5 8.66025 -5
      vertex 3.09017 9.51056 0
      vertex 5 8.66025 0
    endloop
  endfacet
  facet normal 0.406736 0.913546 0
    outer loop
      vertex 3.09017 9.51056 0
      vertex 5 8.66025 -5
      vertex 3.09017 9.51056 -5
    endloop
  endfacet
  facet normal 0.743147 0.669129 0
    outer loop
      vertex 8.09017 5.87785 0
      vertex 6.69131 7.43145 -5
      vertex 6.69131 7.43145 0
    endloop
  endfacet
  facet normal 0.743147 0.669129 0
    outer loop
      vertex 6.69131 7.43145 -5
      vertex 8.09017 5.87785 0
      vertex 8.09017 5.87785 -5
    endloop
  endfacet
  facet normal -0.587783 -0.809019 0
    outer loop
      vertex -6.69131 -7.43145 -5
      vertex -5 -8.66025 0
      vertex -6.69131 -7.43145 0
    endloop
  endfacet
  facet normal -0.587783 -0.809019 -0
    outer loop
      vertex -5 -8.66025 0
      vertex -6.69131 -7.43145 -5
      vertex -5 -8.66025 -5
    endloop
  endfacet
  facet normal -0.743147 0.669129 0
    outer loop
      vertex -8.09017 5.87785 -5
      vertex -6.69131 7.43145 0
      vertex -6.69131 7.43145 -5
    endloop
  endfacet
  facet normal -0.743147 0.669129 0
    outer loop
      vertex -6.69131 7.43145 0
      vertex -8.09017 5.87785 -5
      vertex -8.09017 5.87785 0
    endloop
  endfacet
  facet normal 0 1 -0
    outer loop
      vertex 1.04528 9.94522 -5
      vertex -1.04528 9.94522 0
      vertex 1.04528 9.94522 0
    endloop
  endfacet
  facet normal 0 1 0
    outer loop
      vertex -1.04528 9.94522 0
      vertex 1.04528 9.94522 -5
      vertex -1.04528 9.94522 -5
    endloop
  endfacet
  facet normal 0.406736 -0.913546 0
    outer loop
      vertex 3.09017 -9.51056 -5
      vertex 5 -8.66025 0
      vertex 3.09017 -9.51056 0
    endloop
  endfacet
  facet normal 0.406736 -0.913546 0
    outer loop
      vertex 5 -8.66025 0
      vertex 3.09017 -9.51056 -5
      vertex 5 -8.66025 -5
    endloop
  endfacet
  facet normal 0.207914 -0.978147 0
    outer loop
      vertex 1.04528 -9.94522 -5
      vertex 3.09017 -9.51056 0
      vertex 1.04528 -9.94522 0
    endloop
  endfacet
  facet normal 0.207914 -0.978147 0
    outer loop
      vertex 3.09017 -9.51056 0
      vertex 1.04528 -9.94522 -5
      vertex 3.09017 -9.51056 -5
    endloop
  endfacet
  facet normal -0.951055 0.309021 0
    outer loop
      vertex -9.78148 2.07912 -5
      vertex -9.13545 4.06737 0
      vertex -9.13545 4.06737 -5
    endloop
  endfacet
  facet normal -0.951055 0.309021 0
    outer loop
      vertex -9.13545 4.06737 0
      vertex -9.78148 2.07912 -5
      vertex -9.78148 2.07912 0
    endloop
  endfacet
  facet normal 0 0 -1
    outer loop
      vertex 9.78148 -2.07912 -5
      vertex 9.78148 2.07912 -5
      vertex 10 0 -5
    endloop
  endfacet
  facet normal 0 0 -1
    outer loop
      vertex 9.13545 -4.06737 -5
      vertex 9.78148 2.07912 -5
      vertex 9.78148 -2.07912 -5
    endloop
  endfacet
  facet normal 0 0 -1
    outer loop
      vertex 9.13545 -4.06737 -5
      vertex 9.13545 4.06737 -5
      vertex 9.78148 2.07912 -5
    endloop
  endfacet
  facet normal 0 0 -1
    outer loop
      vertex 8.09017 -5.87785 -5
      vertex 9.13545 4.06737 -5
      vertex 9.13545 -4.06737 -5
    endloop
  endfacet
  facet normal 0 0 -1
    outer loop
      vertex 8.09017 -5.87785 -5
      vertex 8.09017 5.87785 -5
      vertex 9.13545 4.06737 -5
    endloop
  endfacet
  facet normal 0 0 -1
    outer loop
      vertex 6.69131 -7.43145 -5
      vertex 8.09017 5.87785 -5
      vertex 8.09017 -5.87785 -5
    endloop
  endfacet
  facet normal 0 0 -1
    outer loop
      vertex 6.69131 -7.43145 -5
      vertex 6.69131 7.43145 -5
      vertex 8.09017 5.87785 -5
    endloop
  endfacet
  facet normal 0 0 -1
    outer loop
      vertex 5 -8.66025 -5
      vertex 6.69131 7.43145 -5
      vertex 6.69131 -7.43145 -5
    endloop
  endfacet
  facet normal 0 0 -1
    outer loop
      vertex 5 -8.66025 -5
      vertex 5 8.66025 -5
      vertex 6.69131 7.43145 -5
    endloop
  endfacet
  facet normal 0 0 -1
    outer loop
      vertex 3.09017 -9.51056 -5
      vertex 5 8.66025 -5
      vertex 5 -8.66025 -5
    endloop
  endfacet
  facet normal 0 0 -1
    outer loop
      vertex 3.09017 -9.51056 -5
      vertex 3.09017 9.51056 -5
      vertex 5 8.66025 -5
    endloop
  endfacet
  facet normal 0 0 -1
    outer loop
      vertex 1.04528 -9.94522 -5
      vertex 3.09017 9.51056 -5
      vertex 3.09017 -9.51056 -5
    endloop
  endfacet
  facet normal 0 0 -1
    outer loop
      vertex 1.04528 -9.94522 -5
      vertex 1.04528 9.94522 -5
      vertex 3.09017 9.51056 -5
    endloop
  endfacet
  facet normal 0 0 -1
    outer loop
      vertex -1.04528 -9.94522 -5
      vertex 1.04528 9.94522 -5
      vertex 1.04528 -9.94522 -5
    endloop
  endfacet
  facet normal 0 0 -1
    outer loop
      vertex -1.04528 -9.94522 -5
      vertex -1.04528 9.94522 -5
      vertex 1.04528 9.94522 -5
    endloop
  endfacet
  facet normal 0 0 -1
    outer loop
      vertex -3.09017 -9.51056 -5
      vertex -1.04528 9.94522 -5
      vertex -1.04528 -9.94522 -5
    endloop
  endfacet
  facet normal 0 0 -1
    outer loop
      vertex -3.09017 -9.51056 -5
      vertex -3.09017 9.51056 -5
      vertex -1.04528 9.94522 -5
    endloop
  endfacet
  facet normal 0 0 -1
    outer loop
      vertex -5 -8.66025 -5
      vertex -3.09017 9.51056 -5
      vertex -3.09017 -9.51056 -5
    endloop
  endfacet
  facet normal 0 0 -1
    outer loop
      vertex -5 -8.66025 -5
      vertex -5 8.66025 -5
      vertex -3.09017 9.51056 -5
    endloop
  endfacet
  facet normal 0 0 -1
    outer loop
      vertex -6.69131 -7.43145 -5
      vertex -5 8.66025 -5
      vertex -5 -8.66025 -5
    endloop
  endfacet
  facet normal 0 0 -1
    outer loop
      vertex -6.69131 -7.43145 -5
      vertex -6.69131 7.43145 -5
      vertex -5 8.66025 -5
    endloop
  endfacet
  facet normal 0 0 -1
    outer loop
      vertex -8.09017 -5.87785 -5
      vertex -6.69131 7.43145 -5
      vertex -6.69131 -7.43145 -5
    endloop
  endfacet
  facet normal 0 0 -1
    outer loop
      vertex -8.09017 -5.87785 -5
      vertex -8.09017 5.87785 -5
      vertex -6.69131 7.43145 -5
    endloop
  endfacet
  facet normal 0 0 -1
    outer loop
      vertex -9.13545 -4.06737 -5
      vertex -8.09017 5.87785 -5
      vertex -8.09017 -5.87785 -5
    endloop
  endfacet
  facet normal 0 0 -1
    outer loop
      vertex -9.13545 -4.06737 -5
      vertex -9.13545 4.06737 -5
      vertex -8.09017 5.87785 -5
    endloop
  endfacet
  facet normal 0 0 -1
    outer loop
      vertex -9.78148 -2.07912 -5
      vertex -9.13545 4.06737 -5
      vertex -9.13545 -4.06737 -5
    endloop
  endfacet
  facet normal 0 0 -1
    outer loop
      vertex -9.78148 -2.07912 -5
      vertex -9.78148 2.07912 -5
      vertex -9.13545 4.06737 -5
    endloop
  endfacet
  facet normal 0 -0 -1
    outer loop
      vertex -9.78148 2.07912 -5
      vertex -9.78148 -2.07912 -5
      vertex -10 0 -5
    endloop
  endfacet
  facet normal -0.951055 -0.309021 0
    outer loop
      vertex -9.13545 -4.06737 -5
      vertex -9.78148 -2.07912 0
      vertex -9.78148 -2.07912 -5
    endloop
  endfacet
  facet normal -0.951055 -0.309021 0
    outer loop
      vertex -9.78148 -2.07912 0
      vertex -9.13545 -4.06737 -5
      vertex -9.13545 -4.06737 0
    endloop
  endfacet
  facet normal -0.406736 0.913546 0
    outer loop
      vertex -3.09017 9.51056 -5
      vertex -5 8.66025 0
      vertex -3.09017 9.51056 0
    endloop
  endfacet
  facet normal -0.406736 0.913546 0
    outer loop
      vertex -5 8.66025 0
      vertex -3.09017 9.51056 -5
      vertex -5 8.66025 -5
    endloop
  endfacet
  facet normal -0.207914 -0.978147 0
    outer loop
      vertex -3.09017 -9.51056 -5
      vertex -1.04528 -9.94522 0
      vertex -3.09017 -9.51056 0
    endloop
  endfacet
  facet normal -0.207914 -0.978147 -0
    outer loop
      vertex -1.04528 -9.94522 0
      vertex -3.09017 -9.51056 -5
      vertex -1.04528 -9.94522 -5
    endloop
  endfacet
  facet normal 0.207914 0.978147 -0
    outer loop
      vertex 3.09017 9.51056 -5
      vertex 1.04528 9.94522 0
      vertex 3.09017 9.51056 0
    endloop
  endfacet
  facet normal 0.207914 0.978147 0
    outer loop
      vertex 1.04528 9.94522 0
      vertex 3.09017 9.51056 -5
      vertex 1.04528 9.94522 -5
    endloop
  endfacet
  facet normal -0.994522 -0.104526 0
    outer loop
      vertex -9.78148 -2.07912 -5
      vertex -10 0 0
      vertex -10 0 -5
    endloop
  endfacet
  facet normal -0.994522 -0.104526 0
    outer loop
      vertex -10 0 0
      vertex -9.78148 -2.07912 -5
      vertex -9.78148 -2.07912 0
    endloop
  endfacet
  facet normal -0.866026 -0.5 0
    outer loop
      vertex -8.09017 -5.87785 -5
      vertex -9.13545 -4.06737 0
      vertex -9.13545 -4.06737 -5
    endloop
  endfacet
  facet normal -0.866026 -0.5 0
    outer loop
      vertex -9.13545 -4.06737 0
      vertex -8.09017 -5.87785 -5
      vertex -8.09017 -5.87785 0
    endloop
  endfacet
  facet normal -0.866026 0.5 0
    outer loop
      vertex -9.13545 4.06737 -5
      vertex -8.09017 5.87785 0
      vertex -8.09017 5.87785 -5
    endloop
  endfacet
  facet normal -0.866026 0.5 0
    outer loop
      vertex -8.09017 5.87785 0
      vertex -9.13545 4.06737 -5
      vertex -9.13545 4.06737 0
    endloop
  endfacet
  facet normal 0.866026 -0.5 0
    outer loop
      vertex 8.09017 -5.87785 0
      vertex 9.13545 -4.06737 -5
      vertex 9.13545 -4.06737 0
    endloop
  endfacet
  facet normal 0.866026 -0.5 0
    outer loop
      vertex 9.13545 -4.06737 -5
      vertex 8.09017 -5.87785 0
      vertex 8.09017 -5.87785 -5
    endloop
  endfacet
  facet normal 0.587783 0.809019 -0
    outer loop
      vertex 6.69131 7.43145 -5
      vertex 5 8.66025 0
      vertex 6.69131 7.43145 0
    endloop
  endfacet
  facet normal 0.587783 0.809019 0
    outer loop
      vertex 5 8.66025 0
      vertex 6.69131 7.43145 -5
      vertex 5 8.66025 -5
    endloop
  endfacet
  facet normal -0.587783 0.809019 0
    outer loop
      vertex -5 8.66025 -5
      vertex -6.69131 7.43145 0
      vertex -5 8.66025 0
    endloop
  endfacet
  facet normal -0.587783 0.809019 0
    outer loop
      vertex -6.69131 7.43145 0
      vertex -5 8.66025 -5
      vertex -6.69131 7.43145 -5
    endloop
  endfacet
  facet normal -0.207914 0.978147 0
    outer loop
      vertex -1.04528 9.94522 -5
      vertex -3.09017 9.51056 0
      vertex -1.04528 9.94522 0
    endloop
  endfacet
  facet normal -0.207914 0.978147 0
    outer loop
      vertex -3.09017 9.51056 0
      vertex -1.04528 9.94522 -5
      vertex -3.09017 9.51056 -5
    endloop
  endfacet
  facet normal 0 -1 0
    outer loop
      vertex -1.04528 -9.94522 -5
      vertex 1.04528 -9.94522 0
      vertex -1.04528 -9.94522 0
    endloop
  endfacet
  facet normal 0 -1 -0
    outer loop
      vertex 1.04528 -9.94522 0
      vertex -1.04528 -9.94522 -5
      vertex 1.04528 -9.94522 -5
    endloop
  endfacet
  facet normal -0.994522 0.104526 0
    outer loop
      vertex -10 0 -5
      vertex -9.78148 2.07912 0
      vertex -9.78148 2.07912 -5
    endloop
  endfacet
  facet normal -0.994522 0.104526 0
    outer loop
      vertex -9.78148 2.07912 0
      vertex -10 0 -5
      vertex -10 0 0
    endloop
  endfacet
endsolid OpenSCAD_Model
