solid patch3
  facet normal 0 0 1
    outer loop
       vertex 50 50 0
       vertex 30 0 0
       vertex 50 -50 0
    endloop
  endfacet
  facet normal 0 0 1
    outer loop
       vertex 50 50 0
       vertex 29.3444 6.23735 0
       vertex 30 0 0
    endloop
  endfacet
  facet normal 0 0 1
    outer loop
       vertex 50 50 0
       vertex 27.4064 12.2021 0
       vertex 29.3444 6.23735 0
    endloop
  endfacet
  facet normal 0 0 1
    outer loop
       vertex 50 50 0
       vertex 24.2705 17.6336 0
       vertex 27.4064 12.2021 0
    endloop
  endfacet
  facet normal 0 0 1
    outer loop
       vertex 50 50 0
       vertex 20.0739 22.2943 0
       vertex 24.2705 17.6336 0
    endloop
  endfacet
  facet normal 0 0 1
    outer loop
       vertex 50 50 0
       vertex 15 25.9808 0
       vertex 20.0739 22.2943 0
    endloop
  endfacet
  facet normal 0 0 1
    outer loop
       vertex 50 50 0
       vertex 9.27051 28.5317 0
       vertex 15 25.9808 0
    endloop
  endfacet
  facet normal 0 0 1
    outer loop
       vertex 50 50 0
       vertex 3.13585 29.8357 0
       vertex 9.27051 28.5317 0
    endloop
  endfacet
  facet normal 0 0 1
    outer loop
       vertex 50 50 0
       vertex -3.13585 29.8357 0
       vertex 3.13585 29.8357 0
    endloop
  endfacet
  facet normal -0 0 1
    outer loop
       vertex -50 50 0
       vertex -3.13585 29.8357 0
       vertex 50 50 0
    endloop
  endfacet
  facet normal 0 0 1
    outer loop
       vertex -29.3444 6.23735 0
       vertex -50 50 0
       vertex -30 0 0
    endloop
  endfacet
  facet normal 0 0 1
    outer loop
       vertex -27.4064 12.2021 0
       vertex -50 50 0
       vertex -29.3444 6.23735 0
    endloop
  endfacet
  facet normal 0 0 1
    outer loop
       vertex -24.2705 17.6336 0
       vertex -50 50 0
       vertex -27.4064 12.2021 0
    endloop
  endfacet
  facet normal 0 0 1
    outer loop
       vertex -20.0739 22.2943 0
       vertex -50 50 0
       vertex -24.2705 17.6336 0
    endloop
  endfacet
  facet normal 0 0 1
    outer loop
       vertex -15 25.9808 0
       vertex -50 50 0
       vertex -20.0739 22.2943 0
    endloop
  endfacet
  facet normal 0 0 1
    outer loop
       vertex -9.27051 28.5317 0
       vertex -50 50 0
       vertex -15 25.9808 0
    endloop
  endfacet
  facet normal 0 0 1
    outer loop
       vertex -3.13585 29.8357 0
       vertex -50 50 0
       vertex -9.27051 28.5317 0
    endloop
  endfacet
  facet normal -0 0 1
    outer loop
       vertex 29.3444 -6.23735 0
       vertex 50 -50 0
       vertex 30 0 0
    endloop
  endfacet
  facet normal -0 0 1
    outer loop
       vertex 27.4064 -12.2021 0
       vertex 50 -50 0
       vertex 29.3444 -6.23735 0
    endloop
  endfacet
  facet normal -0 0 1
    outer loop
       vertex 24.2705 -17.6336 0
       vertex 50 -50 0
       vertex 27.4064 -12.2021 0
    endloop
  endfacet
  facet normal -0 0 1
    outer loop
       vertex 20.0739 -22.2943 0
       vertex 50 -50 0
       vertex 24.2705 -17.6336 0
    endloop
  endfacet
  facet normal -0 0 1
    outer loop
       vertex 15 -25.9808 0
       vertex 50 -50 0
       vertex 20.0739 -22.2943 0
    endloop
  endfacet
  facet normal -0 0 1
    outer loop
       vertex 9.27051 -28.5317 0
       vertex 50 -50 0
       vertex 15 -25.9808 0
    endloop
  endfacet
  facet normal -0 0 1
    outer loop
       vertex 3.13585 -29.8357 0
       vertex 50 -50 0
       vertex 9.27051 -28.5317 0
    endloop
  endfacet
  facet normal -0 0 1
    outer loop
       vertex -3.13585 -29.8357 0
       vertex 50 -50 0
       vertex 3.13585 -29.8357 0
    endloop
  endfacet
  facet normal 0 0 1
    outer loop
       vertex -50 -50 0
       vertex -3.13585 -29.8357 0
       vertex -9.27051 -28.5317 0
    endloop
  endfacet
  facet normal 0 0 1
    outer loop
       vertex -50 -50 0
       vertex -30 0 0
       vertex -50 50 0
    endloop
  endfacet
  facet normal 0 0 1
    outer loop
       vertex -30 0 0
       vertex -50 -50 0
       vertex -29.3444 -6.23735 0
    endloop
  endfacet
  facet normal 0 0 1
    outer loop
       vertex -3.13585 -29.8357 0
       vertex -50 -50 0
       vertex 50 -50 0
    endloop
  endfacet
  facet normal 0 0 1
    outer loop
       vertex -15 -25.9808 0
       vertex -50 -50 0
       vertex -9.27051 -28.5317 0
    endloop
  endfacet
  facet normal 0 0 1
    outer loop
       vertex -20.0739 -22.2943 0
       vertex -50 -50 0
       vertex -15 -25.9808 0
    endloop
  endfacet
  facet normal 0 0 1
    outer loop
       vertex -24.2705 -17.6336 0
       vertex -50 -50 0
       vertex -20.0739 -22.2943 0
    endloop
  endfacet
  facet normal 0 0 1
    outer loop
       vertex -27.4064 -12.2021 0
       vertex -50 -50 0
       vertex -24.2705 -17.6336 0
    endloop
  endfacet
  facet normal 0 0 1
    outer loop
       vertex -29.3444 -6.23735 0
       vertex -50 -50 0
       vertex -27.4064 -12.2021 0
    endloop
  endfacet
endsolid patch3
